<?xml version="1.0" standalone="no"?>
<!DOCTYPE svg PUBLIC "-//W3C//DTD SVG 1.1//EN"
"http://www.w3.org/Graphics/SVG/1.1/DTD/svg11.dtd">
<svg viewBox="0 0 310 110"  xmlns="http://www.w3.org/2000/svg" >
  <rect x="0"  y="0"  width="310"  height="110"  fill="#ffffff"  stroke="none" />
  <g >
    <polygon points="15.116666666666665,4.55 23.883333333333333,4.55 24.78333333333333,4.55 33.55,4.55 34.45,4.55 43.21666666666666,4.55 44.11666666666667,4.55 52.883333333333326,4.55 53.78333333333333,4.55 62.54999999999999,4.55 63.45,4.55 72.21666666666667,4.55 73.11666666666666,4.55 81.88333333333333,4.55 82.78333333333333,4.55 91.55,4.55 92.45,4.55 101.21666666666667,4.55 102.11666666666666,4.55 110.88333333333333,4.55 111.78333333333333,4.55 120.55,4.55 121.45,4.55 130.21666666666667,4.55 131.11666666666665,4.55 139.88333333333333,4.55 140.7833333333333,4.55 149.54999999999998,4.55 150.45,4.55 159.21666666666667,4.55 160.11666666666665,4.55 168.88333333333333,4.55 169.7833333333333,4.55 178.54999999999998,4.55 179.45,4.55 188.21666666666667,4.55 189.11666666666665,4.55 197.88333333333333,4.55 198.7833333333333,4.55 207.54999999999998,4.55 208.45,4.55 217.21666666666667,4.55 218.11666666666665,4.55 226.88333333333333,4.55 227.7833333333333,4.55 236.54999999999998,4.55 237.45,4.55 246.21666666666667,4.55 247.11666666666665,4.55 255.88333333333333,4.55 256.7833333333333,4.55 265.55,4.55 266.45,4.55 275.2166666666667,4.55 276.1166666666666,4.55 284.8833333333333,4.55 285.7833333333333,4.55 294.55,4.55 295.45,5.45 295.45,13.55 295.45,14.45 295.45,22.55 295.45,23.45 295.45,31.55 295.45,32.45 295.45,40.55 295.45,41.45 295.45,49.55 295.45,50.45 295.45,58.55 295.45,59.45 295.45,67.55 295.45,68.45 295.45,76.55 295.45,77.45 295.45,85.55 295.45,86.45 295.45,94.55 294.55,94.55 294.55,86.45 294.55,85.55 294.55,77.45 285.7833333333333,77.45 285.7833333333333,85.55 284.8833333333333,85.55 284.8833333333333,77.45 284.8833333333333,76.55 284.8833333333333,68.45 276.1166666666666,68.45 276.1166666666666,76.55 275.2166666666667,76.55 275.2166666666667,68.45 275.2166666666667,67.55 275.2166666666667,59.45 276.1166666666666,59.45 276.1166666666666,67.55 284.8833333333333,67.55 285.7833333333333,68.45 285.7833333333333,76.55 294.55,76.55 294.55,68.45 294.55,67.55 294.55,59.45 294.55,58.55 294.55,50.45 294.55,49.55 294.55,41.45 285.7833333333333,41.45 284.8833333333333,41.45 276.1166666666666,41.45 275.2166666666667,41.45 266.45,41.45 266.45,49.55 275.2166666666667,49.55 276.1166666666666,49.55 284.8833333333333,49.55 285.7833333333333,50.45 285.7833333333333,58.55 284.8833333333333,58.55 284.8833333333333,50.45 276.1166666666666,50.45 275.2166666666667,50.45 266.45,50.45 265.55,49.55 265.55,41.45 266.45,40.55 275.2166666666667,40.55 276.1166666666666,40.55 284.8833333333333,40.55 285.7833333333333,40.55 294.55,40.55 294.55,32.45 294.55,31.55 294.55,23.45 294.55,22.55 294.55,14.45 294.55,13.55 294.55,5.45 285.7833333333333,5.45 285.7833333333333,13.55 285.7833333333333,14.45 285.7833333333333,22.55 284.8833333333333,23.45 276.1166666666666,23.45 275.2166666666667,23.45 266.45,23.45 266.45,31.55 275.2166666666667,31.55 276.1166666666666,31.55 284.8833333333333,31.55 284.8833333333333,32.45 276.1166666666666,32.45 275.2166666666667,32.45 266.45,32.45 265.55,31.55 265.55,23.45 266.45,22.55 275.2166666666667,22.55 276.1166666666666,22.55 284.8833333333333,22.55 284.8833333333333,14.45 276.1166666666666,14.45 275.2166666666667,14.45 266.45,14.45 265.55,14.45 256.7833333333333,14.45 255.88333333333333,14.45 247.11666666666665,14.45 246.21666666666667,14.45 237.45,14.45 237.45,22.55 246.21666666666667,22.55 247.11666666666665,22.55 255.88333333333333,22.55 256.7833333333333,23.45 256.7833333333333,31.55 256.7833333333333,32.45 256.7833333333333,40.55 256.7833333333333,41.45 256.7833333333333,49.55 255.88333333333333,49.55 255.88333333333333,41.45 255.88333333333333,40.55 255.88333333333333,32.45 247.11666666666665,32.45 247.11666666666665,31.55 255.88333333333333,31.55 255.88333333333333,23.45 247.11666666666665,23.45 246.21666666666667,23.45 237.45,23.45 237.45,31.55 237.45,32.45 237.45,40.55 246.21666666666667,40.55 247.11666666666665,41.45 247.11666666666665,49.55 246.21666666666667,49.55 246.21666666666667,41.45 237.45,41.45 236.54999999999998,40.55 236.54999999999998,32.45 236.54999999999998,31.55 236.54999999999998,23.45 236.54999999999998,22.55 236.54999999999998,14.45 227.7833333333333,14.45 227.7833333333333,22.55 227.7833333333333,23.45 227.7833333333333,31.55 227.7833333333333,32.45 227.7833333333333,40.55 226.88333333333333,40.55 226.88333333333333,32.45 218.11666666666665,32.45 218.11666666666665,40.55 218.11666666666665,41.45 218.11666666666665,49.55 226.88333333333333,49.55 227.7833333333333,49.55 236.54999999999998,49.55 236.54999999999998,50.45 227.7833333333333,50.45 226.88333333333333,50.45 218.11666666666665,50.45 218.11666666666665,58.55 218.11666666666665,59.45 218.11666666666665,67.55 218.11666666666665,68.45 218.11666666666665,76.55 217.21666666666667,77.45 208.45,77.45 207.54999999999998,77.45 198.7833333333333,77.45 198.7833333333333,85.55 197.88333333333333,86.45 189.11666666666665,86.45 188.21666666666667,86.45 179.45,86.45 178.54999999999998,86.45 169.7833333333333,86.45 168.88333333333333,85.55 168.88333333333333,77.45 160.11666666666665,77.45 160.11666666666665,76.55 168.88333333333333,76.55 169.7833333333333,77.45 169.7833333333333,85.55 178.54999999999998,85.55 179.45,85.55 188.21666666666667,85.55 189.11666666666665,85.55 197.88333333333333,85.55 197.88333333333333,77.45 198.7833333333333,76.55 207.54999999999998,76.55 208.45,76.55 217.21666666666667,76.55 217.21666666666667,68.45 217.21666666666667,67.55 217.21666666666667,59.45 208.45,59.45 207.54999999999998,59.45 198.7833333333333,59.45 198.7833333333333,58.55 207.54999999999998,58.55 207.54999999999998,50.45 208.45,50.45 208.45,58.55 217.21666666666667,58.55 217.21666666666667,50.45 217.21666666666667,49.55 217.21666666666667,41.45 208.45,41.45 207.54999999999998,41.45 198.7833333333333,41.45 197.88333333333333,41.45 189.11666666666665,41.45 189.11666666666665,49.55 197.88333333333333,49.55 197.88333333333333,50.45 189.11666666666665,50.45 189.11666666666665,58.55 189.11666666666665,59.45 189.11666666666665,67.55 197.88333333333333,67.55 198.7833333333333,67.55 207.54999999999998,67.55 207.54999999999998,68.45 198.7833333333333,68.45 197.88333333333333,68.45 189.11666666666665,68.45 188.21666666666667,67.55 188.21666666666667,59.45 188.21666666666667,58.55 188.21666666666667,50.45 188.21666666666667,49.55 188.21666666666667,41.45 189.11666666666665,40.55 197.88333333333333,40.55 197.88333333333333,32.45 198.7833333333333,32.45 198.7833333333333,40.55 207.54999999999998,40.55 208.45,40.55 217.21666666666667,40.55 217.21666666666667,32.45 208.45,32.45 207.54999999999998,31.55 207.54999999999998,23.45 198.7833333333333,23.45 198.7833333333333,22.55 207.54999999999998,22.55 208.45,23.45 208.45,31.55 217.21666666666667,31.55 218.11666666666665,31.55 226.88333333333333,31.55 226.88333333333333,23.45 226.88333333333333,22.55 226.88333333333333,14.45 218.11666666666665,14.45 218.11666666666665,22.55 217.21666666666667,22.55 217.21666666666667,14.45 208.45,14.45 207.54999999999998,14.45 198.7833333333333,14.45 197.88333333333333,14.45 189.11666666666665,14.45 189.11666666666665,22.55 189.11666666666665,23.45 189.11666666666665,31.55 188.21666666666667,32.45 179.45,32.45 179.45,40.55 179.45,41.45 179.45,49.55 179.45,50.45 179.45,58.55 179.45,59.45 179.45,67.55 179.45,68.45 179.45,76.55 188.21666666666667,76.55 188.21666666666667,77.45 179.45,77.45 178.54999999999998,76.55 178.54999999999998,68.45 169.7833333333333,68.45 168.88333333333333,68.45 160.11666666666665,68.45 159.21666666666667,68.45 150.45,68.45 150.45,76.55 149.54999999999998,76.55 149.54999999999998,68.45 149.54999999999998,67.55 149.54999999999998,59.45 149.54999999999998,58.55 149.54999999999998,50.45 149.54999999999998,49.55 149.54999999999998,41.45 140.7833333333333,41.45 139.88333333333333,40.55 139.88333333333333,32.45 140.7833333333333,32.45 140.7833333333333,40.55 149.54999999999998,40.55 150.45,41.45 150.45,49.55 150.45,50.45 150.45,58.55 150.45,59.45 150.45,67.55 159.21666666666667,67.55 160.11666666666665,67.55 168.88333333333333,67.55 168.88333333333333,59.45 160.11666666666665,59.45 159.21666666666667,58.55 159.21666666666667,50.45 159.21666666666667,49.55 159.21666666666667,41.45 159.21666666666667,40.55 159.21666666666667,32.45 150.45,32.45 150.45,31.55 159.21666666666667,31.55 160.11666666666665,32.45 160.11666666666665,40.55 160.11666666666665,41.45 160.11666666666665,49.55 160.11666666666665,50.45 160.11666666666665,58.55 168.88333333333333,58.55 169.7833333333333,59.45 169.7833333333333,67.55 178.54999999999998,67.55 178.54999999999998,59.45 178.54999999999998,58.55 178.54999999999998,50.45 169.7833333333333,50.45 169.7833333333333,49.55 178.54999999999998,49.55 178.54999999999998,41.45 178.54999999999998,40.55 178.54999999999998,32.45 179.45,31.55 188.21666666666667,31.55 188.21666666666667,23.45 188.21666666666667,22.55 188.21666666666667,14.45 189.11666666666665,13.55 197.88333333333333,13.55 198.7833333333333,13.55 207.54999999999998,13.55 208.45,13.55 217.21666666666667,13.55 218.11666666666665,13.55 226.88333333333333,13.55 227.7833333333333,13.55 236.54999999999998,13.55 237.45,13.55 246.21666666666667,13.55 247.11666666666665,13.55 255.88333333333333,13.55 256.7833333333333,13.55 265.55,13.55 266.45,13.55 275.2166666666667,13.55 276.1166666666666,13.55 284.8833333333333,13.55 284.8833333333333,5.45 276.1166666666666,5.45 275.2166666666667,5.45 266.45,5.45 265.55,5.45 256.7833333333333,5.45 255.88333333333333,5.45 247.11666666666665,5.45 246.21666666666667,5.45 237.45,5.45 236.54999999999998,5.45 227.7833333333333,5.45 226.88333333333333,5.45 218.11666666666665,5.45 217.21666666666667,5.45 208.45,5.45 207.54999999999998,5.45 198.7833333333333,5.45 197.88333333333333,5.45 189.11666666666665,5.45 188.21666666666667,5.45 179.45,5.45 178.54999999999998,5.45 169.7833333333333,5.45 169.7833333333333,13.55 178.54999999999998,13.55 179.45,14.45 179.45,22.55 178.54999999999998,23.45 169.7833333333333,23.45 169.7833333333333,31.55 169.7833333333333,32.45 169.7833333333333,40.55 168.88333333333333,40.55 168.88333333333333,32.45 168.88333333333333,31.55 168.88333333333333,23.45 169.7833333333333,22.55 178.54999999999998,22.55 178.54999999999998,14.45 169.7833333333333,14.45 168.88333333333333,14.45 160.11666666666665,14.45 159.21666666666667,14.45 150.45,14.45 150.45,22.55 159.21666666666667,22.55 159.21666666666667,23.45 150.45,23.45 149.54999999999998,23.45 140.7833333333333,23.45 139.88333333333333,23.45 131.11666666666665,23.45 131.11666666666665,31.55 131.11666666666665,32.45 131.11666666666665,40.55 131.11666666666665,41.45 131.11666666666665,49.55 139.88333333333333,49.55 139.88333333333333,50.45 131.11666666666665,50.45 131.11666666666665,58.55 130.21666666666667,59.45 121.45,59.45 120.55,59.45 111.78333333333333,59.45 110.88333333333333,59.45 102.11666666666666,59.45 102.11666666666666,67.55 101.21666666666667,67.55 101.21666666666667,59.45 102.11666666666666,58.55 110.88333333333333,58.55 110.88333333333333,50.45 102.11666666666666,50.45 101.21666666666667,50.45 92.45,50.45 91.55,50.45 82.78333333333333,50.45 82.78333333333333,58.55 91.55,58.55 92.45,59.45 92.45,67.55 91.55,67.55 91.55,59.45 82.78333333333333,59.45 81.88333333333333,58.55 81.88333333333333,50.45 73.11666666666666,50.45 72.21666666666667,50.45 63.45,50.45 62.54999999999999,50.45 53.78333333333333,50.45 53.78333333333333,58.55 52.883333333333326,58.55 52.883333333333326,50.45 44.11666666666667,50.45 43.21666666666666,50.45 34.45,50.45 33.55,50.45 24.78333333333333,50.45 23.883333333333333,49.55 23.883333333333333,41.45 15.116666666666665,41.45 15.116666666666665,49.55 14.216666666666667,49.55 14.216666666666667,41.45 15.116666666666665,40.55 23.883333333333333,40.55 23.883333333333333,32.45 24.78333333333333,32.45 24.78333333333333,40.55 24.78333333333333,41.45 24.78333333333333,49.55 33.55,49.55 34.45,49.55 43.21666666666666,49.55 44.11666666666667,49.55 52.883333333333326,49.55 53.78333333333333,49.55 62.54999999999999,49.55 63.45,49.55 72.21666666666667,49.55 72.21666666666667,41.45 72.21666666666667,40.55 72.21666666666667,32.45 73.11666666666666,32.45 73.11666666666666,40.55 73.11666666666666,41.45 73.11666666666666,49.55 81.88333333333333,49.55 82.78333333333333,49.55 91.55,49.55 92.45,49.55 101.21666666666667,49.55 102.11666666666666,49.55 110.88333333333333,49.55 111.78333333333333,50.45 111.78333333333333,58.55 120.55,58.55 121.45,58.55 130.21666666666667,58.55 130.21666666666667,50.45 130.21666666666667,49.55 130.21666666666667,41.45 130.21666666666667,40.55 130.21666666666667,32.45 121.45,32.45 121.45,31.55 130.21666666666667,31.55 130.21666666666667,23.45 130.21666666666667,22.55 130.21666666666667,14.45 121.45,14.45 121.45,22.55 120.55,23.45 111.78333333333333,23.45 110.88333333333333,23.45 102.11666666666666,23.45 102.11666666666666,31.55 101.21666666666667,32.45 92.45,32.45 92.45,31.55 101.21666666666667,31.55 101.21666666666667,23.45 92.45,23.45 91.55,23.45 82.78333333333333,23.45 82.78333333333333,31.55 82.78333333333333,32.45 82.78333333333333,40.55 91.55,40.55 92.45,40.55 101.21666666666667,40.55 102.11666666666666,40.55 110.88333333333333,40.55 110.88333333333333,32.45 111.78333333333333,32.45 111.78333333333333,40.55 120.55,40.55 121.45,41.45 121.45,49.55 120.55,49.55 120.55,41.45 111.78333333333333,41.45 110.88333333333333,41.45 102.11666666666666,41.45 101.21666666666667,41.45 92.45,41.45 91.55,41.45 82.78333333333333,41.45 81.88333333333333,40.55 81.88333333333333,32.45 81.88333333333333,31.55 81.88333333333333,23.45 73.11666666666666,23.45 72.21666666666667,22.55 72.21666666666667,14.45 73.11666666666666,14.45 73.11666666666666,22.55 81.88333333333333,22.55 82.78333333333333,22.55 91.55,22.55 92.45,22.55 101.21666666666667,22.55 102.11666666666666,22.55 110.88333333333333,22.55 111.78333333333333,22.55 120.55,22.55 120.55,14.45 121.45,13.55 130.21666666666667,13.55 131.11666666666665,14.45 131.11666666666665,22.55 139.88333333333333,22.55 140.7833333333333,22.55 149.54999999999998,22.55 149.54999999999998,14.45 150.45,13.55 159.21666666666667,13.55 160.11666666666665,13.55 168.88333333333333,13.55 168.88333333333333,5.45 160.11666666666665,5.45 159.21666666666667,5.45 150.45,5.45 149.54999999999998,5.45 140.7833333333333,5.45 140.7833333333333,13.55 139.88333333333333,13.55 139.88333333333333,5.45 131.11666666666665,5.45 130.21666666666667,5.45 121.45,5.45 120.55,5.45 111.78333333333333,5.45 110.88333333333333,5.45 102.11666666666666,5.45 101.21666666666667,5.45 92.45,5.45 91.55,5.45 82.78333333333333,5.45 82.78333333333333,13.55 91.55,13.55 92.45,13.55 101.21666666666667,13.55 102.11666666666666,13.55 110.88333333333333,13.55 110.88333333333333,14.45 102.11666666666666,14.45 101.21666666666667,14.45 92.45,14.45 91.55,14.45 82.78333333333333,14.45 81.88333333333333,13.55 81.88333333333333,5.45 73.11666666666666,5.45 72.21666666666667,5.45 63.45,5.45 62.54999999999999,5.45 53.78333333333333,5.45 52.883333333333326,5.45 44.11666666666667,5.45 43.21666666666666,5.45 34.45,5.45 33.55,5.45 24.78333333333333,5.45 23.883333333333333,5.45 15.116666666666665,5.45 15.116666666666665,13.55 23.883333333333333,13.55 24.78333333333333,13.55 33.55,13.55 34.45,13.55 43.21666666666666,13.55 44.11666666666667,13.55 52.883333333333326,13.55 53.78333333333333,13.55 62.54999999999999,13.55 63.45,14.45 63.45,22.55 63.45,23.45 63.45,31.55 63.45,32.45 63.45,40.55 62.54999999999999,40.55 62.54999999999999,32.45 53.78333333333333,32.45 52.883333333333326,32.45 44.11666666666667,32.45 44.11666666666667,31.55 52.883333333333326,31.55 53.78333333333333,31.55 62.54999999999999,31.55 62.54999999999999,23.45 62.54999999999999,22.55 62.54999999999999,14.45 53.78333333333333,14.45 52.883333333333326,14.45 44.11666666666667,14.45 43.21666666666666,14.45 34.45,14.45 33.55,14.45 24.78333333333333,14.45 23.883333333333333,14.45 15.116666666666665,14.45 15.116666666666665,22.55 23.883333333333333,22.55 24.78333333333333,22.55 33.55,22.55 34.45,22.55 43.21666666666666,22.55 44.11666666666667,22.55 52.883333333333326,22.55 52.883333333333326,23.45 44.11666666666667,23.45 43.21666666666666,23.45 34.45,23.45 34.45,31.55 34.45,32.45 34.45,40.55 43.21666666666666,40.55 44.11666666666667,40.55 52.883333333333326,40.55 52.883333333333326,41.45 44.11666666666667,41.45 43.21666666666666,41.45 34.45,41.45 33.55,40.55 33.55,32.45 33.55,31.55 33.55,23.45 24.78333333333333,23.45 23.883333333333333,23.45 15.116666666666665,23.45 15.116666666666665,31.55 14.216666666666667,31.55 14.216666666666667,23.45 14.216666666666667,22.55 14.216666666666667,14.45 14.216666666666667,13.55 14.216666666666667,5.45"  stroke="none"  fill="#000000" />
    <polygon points="4.55,13.55 4.55,5.45 5.45,5.45 5.45,13.55 5.45,14.45 5.45,22.55 5.45,23.45 5.45,31.55 5.45,32.45 5.45,40.55 5.45,41.45 5.45,49.55 5.45,50.45 5.45,58.55 14.216666666666667,58.55 15.116666666666665,58.55 23.883333333333333,58.55 24.78333333333333,58.55 33.55,58.55 34.45,58.55 43.21666666666666,58.55 44.11666666666667,59.45 44.11666666666667,67.55 44.11666666666667,68.45 44.11666666666667,76.55 52.883333333333326,76.55 52.883333333333326,68.45 53.78333333333333,68.45 53.78333333333333,76.55 62.54999999999999,76.55 63.45,77.45 63.45,85.55 72.21666666666667,85.55 72.21666666666667,86.45 63.45,86.45 62.54999999999999,86.45 53.78333333333333,86.45 52.883333333333326,86.45 44.11666666666667,86.45 43.21666666666666,86.45 34.45,86.45 33.55,86.45 24.78333333333333,86.45 23.883333333333333,85.55 23.883333333333333,77.45 15.116666666666665,77.45 15.116666666666665,76.55 23.883333333333333,76.55 24.78333333333333,77.45 24.78333333333333,85.55 33.55,85.55 34.45,85.55 43.21666666666666,85.55 44.11666666666667,85.55 52.883333333333326,85.55 53.78333333333333,85.55 62.54999999999999,85.55 62.54999999999999,77.45 53.78333333333333,77.45 52.883333333333326,77.45 44.11666666666667,77.45 43.21666666666666,77.45 34.45,77.45 33.55,76.55 33.55,68.45 24.78333333333333,68.45 23.883333333333333,68.45 15.116666666666665,68.45 15.116666666666665,67.55 23.883333333333333,67.55 24.78333333333333,67.55 33.55,67.55 34.45,68.45 34.45,76.55 43.21666666666666,76.55 43.21666666666666,68.45 43.21666666666666,67.55 43.21666666666666,59.45 34.45,59.45 33.55,59.45 24.78333333333333,59.45 23.883333333333333,59.45 15.116666666666665,59.45 14.216666666666667,59.45 5.45,59.45 5.45,67.55 5.45,68.45 5.45,76.55 5.45,77.45 5.45,85.55 5.45,86.45 5.45,94.55 14.216666666666667,94.55 14.216666666666667,86.45 15.116666666666665,86.45 15.116666666666665,94.55 23.883333333333333,94.55 24.78333333333333,94.55 33.55,94.55 34.45,94.55 43.21666666666666,94.55 44.11666666666667,94.55 52.883333333333326,94.55 53.78333333333333,94.55 62.54999999999999,94.55 63.45,94.55 72.21666666666667,94.55 73.11666666666666,94.55 81.88333333333333,94.55 81.88333333333333,86.45 81.88333333333333,85.55 81.88333333333333,77.45 73.11666666666666,77.45 72.21666666666667,76.55 72.21666666666667,68.45 63.45,68.45 62.54999999999999,67.55 62.54999999999999,59.45 63.45,58.55 72.21666666666667,58.55 72.21666666666667,59.45 63.45,59.45 63.45,67.55 72.21666666666667,67.55 73.11666666666666,67.55 81.88333333333333,67.55 81.88333333333333,68.45 73.11666666666666,68.45 73.11666666666666,76.55 81.88333333333333,76.55 82.78333333333333,76.55 91.55,76.55 92.45,77.45 92.45,85.55 91.55,85.55 91.55,77.45 82.78333333333333,77.45 82.78333333333333,85.55 82.78333333333333,86.45 82.78333333333333,94.55 91.55,94.55 92.45,94.55 101.21666666666667,94.55 101.21666666666667,86.45 101.21666666666667,85.55 101.21666666666667,77.45 102.11666666666666,76.55 110.88333333333333,76.55 110.88333333333333,68.45 111.78333333333333,68.45 111.78333333333333,76.55 110.88333333333333,77.45 102.11666666666666,77.45 102.11666666666666,85.55 102.11666666666666,86.45 102.11666666666666,94.55 110.88333333333333,94.55 111.78333333333333,94.55 120.55,94.55 121.45,94.55 130.21666666666667,94.55 130.21666666666667,86.45 130.21666666666667,85.55 130.21666666666667,77.45 131.11666666666665,77.45 131.11666666666665,85.55 131.11666666666665,86.45 131.11666666666665,94.55 139.88333333333333,94.55 140.7833333333333,94.55 149.54999999999998,94.55 150.45,94.55 159.21666666666667,94.55 159.21666666666667,86.45 150.45,86.45 149.54999999999998,86.45 140.7833333333333,86.45 139.88333333333333,85.55 139.88333333333333,77.45 139.88333333333333,76.55 139.88333333333333,68.45 131.11666666666665,68.45 130.21666666666667,68.45 121.45,68.45 121.45,76.55 121.45,77.45 121.45,85.55 120.55,86.45 111.78333333333333,86.45 111.78333333333333,85.55 120.55,85.55 120.55,77.45 120.55,76.55 120.55,68.45 121.45,67.55 130.21666666666667,67.55 131.11666666666665,67.55 139.88333333333333,67.55 139.88333333333333,59.45 140.7833333333333,59.45 140.7833333333333,67.55 140.7833333333333,68.45 140.7833333333333,76.55 140.7833333333333,77.45 140.7833333333333,85.55 149.54999999999998,85.55 150.45,85.55 159.21666666666667,85.55 160.11666666666665,86.45 160.11666666666665,94.55 168.88333333333333,94.55 169.7833333333333,94.55 178.54999999999998,94.55 179.45,94.55 188.21666666666667,94.55 189.11666666666665,94.55 197.88333333333333,94.55 198.7833333333333,94.55 207.54999999999998,94.55 208.45,94.55 217.21666666666667,94.55 218.11666666666665,94.55 226.88333333333333,94.55 227.7833333333333,94.55 236.54999999999998,94.55 236.54999999999998,86.45 237.45,86.45 237.45,94.55 246.21666666666667,94.55 247.11666666666665,94.55 255.88333333333333,94.55 255.88333333333333,86.45 255.88333333333333,85.55 255.88333333333333,77.45 255.88333333333333,76.55 255.88333333333333,68.45 247.11666666666665,68.45 247.11666666666665,76.55 247.11666666666665,77.45 247.11666666666665,85.55 246.21666666666667,85.55 246.21666666666667,77.45 237.45,77.45 237.45,76.55 246.21666666666667,76.55 246.21666666666667,68.45 247.11666666666665,67.55 255.88333333333333,67.55 256.7833333333333,68.45 256.7833333333333,76.55 256.7833333333333,77.45 256.7833333333333,85.55 256.7833333333333,86.45 256.7833333333333,94.55 265.55,94.55 266.45,94.55 275.2166666666667,94.55 275.2166666666667,86.45 266.45,86.45 265.55,85.55 265.55,77.45 265.55,76.55 265.55,68.45 265.55,67.55 265.55,59.45 256.7833333333333,59.45 255.88333333333333,59.45 247.11666666666665,59.45 246.21666666666667,59.45 237.45,59.45 237.45,67.55 236.54999999999998,67.55 236.54999999999998,59.45 227.7833333333333,59.45 227.7833333333333,67.55 227.7833333333333,68.45 227.7833333333333,76.55 227.7833333333333,77.45 227.7833333333333,85.55 226.88333333333333,86.45 218.11666666666665,86.45 217.21666666666667,86.45 208.45,86.45 208.45,85.55 217.21666666666667,85.55 218.11666666666665,85.55 226.88333333333333,85.55 226.88333333333333,77.45 226.88333333333333,76.55 226.88333333333333,68.45 226.88333333333333,67.55 226.88333333333333,59.45 227.7833333333333,58.55 236.54999999999998,58.55 237.45,58.55 246.21666666666667,58.55 247.11666666666665,58.55 255.88333333333333,58.55 256.7833333333333,58.55 265.55,58.55 266.45,59.45 266.45,67.55 266.45,68.45 266.45,76.55 266.45,77.45 266.45,85.55 275.2166666666667,85.55 276.1166666666666,86.45 276.1166666666666,94.55 284.8833333333333,94.55 284.8833333333333,95.45 276.1166666666666,95.45 275.2166666666667,95.45 266.45,95.45 265.55,95.45 256.7833333333333,95.45 255.88333333333333,95.45 247.11666666666665,95.45 246.21666666666667,95.45 237.45,95.45 236.54999999999998,95.45 227.7833333333333,95.45 226.88333333333333,95.45 218.11666666666665,95.45 217.21666666666667,95.45 208.45,95.45 207.54999999999998,95.45 198.7833333333333,95.45 197.88333333333333,95.45 189.11666666666665,95.45 188.21666666666667,95.45 179.45,95.45 178.54999999999998,95.45 169.7833333333333,95.45 168.88333333333333,95.45 160.11666666666665,95.45 159.21666666666667,95.45 150.45,95.45 149.54999999999998,95.45 140.7833333333333,95.45 139.88333333333333,95.45 131.11666666666665,95.45 130.21666666666667,95.45 121.45,95.45 120.55,95.45 111.78333333333333,95.45 110.88333333333333,95.45 102.11666666666666,95.45 101.21666666666667,95.45 92.45,95.45 91.55,95.45 82.78333333333333,95.45 81.88333333333333,95.45 73.11666666666666,95.45 72.21666666666667,95.45 63.45,95.45 62.54999999999999,95.45 53.78333333333333,95.45 52.883333333333326,95.45 44.11666666666667,95.45 43.21666666666666,95.45 34.45,95.45 33.55,95.45 24.78333333333333,95.45 23.883333333333333,95.45 15.116666666666665,95.45 14.216666666666667,95.45 5.45,95.45 4.55,94.55 4.55,86.45 4.55,85.55 4.55,77.45 4.55,76.55 4.55,68.45 4.55,67.55 4.55,59.45 4.55,58.55 4.55,50.45 4.55,49.55 4.55,41.45 4.55,40.55 4.55,32.45 4.55,31.55 4.55,23.45 4.55,22.55 4.55,14.45"  stroke="none"  fill="#000000" />
  </g>
</svg>
