<?xml version="1.0" standalone="no"?>
<!DOCTYPE svg PUBLIC "-//W3C//DTD SVG 1.1//EN"
"http://www.w3.org/Graphics/SVG/1.1/DTD/svg11.dtd">
<svg viewBox="0 0 100 260"  xmlns="http://www.w3.org/2000/svg" >
  <g >
    <polygon points="5.16,4.84 8.04,4.84 8.36,4.84 11.239999999999998,4.84 11.56,4.84 14.440000000000001,4.84 14.760000000000002,4.84 17.64,4.84 17.96,4.84 20.84,4.84 21.16,4.84 24.04,4.84 24.360000000000003,4.84 27.240000000000002,4.84 27.560000000000002,4.84 30.44,4.84 30.76,4.84 33.64000000000001,4.84 33.959999999999994,4.84 36.84,4.84 37.16,4.84 40.040000000000006,4.84 40.36,4.84 43.24000000000001,4.84 43.56,4.84 46.44000000000001,4.84 46.76,4.84 49.64000000000001,4.84 49.96,4.84 52.84000000000001,4.84 53.16,4.84 56.040000000000006,4.84 56.36,4.84 59.24000000000001,4.84 59.56,4.84 62.44000000000001,4.84 62.76,4.84 65.64,4.84 65.96000000000001,4.84 68.84000000000002,4.84 69.16,4.84 72.04,4.84 72.36,4.84 75.24000000000001,4.84 75.56,4.84 78.44000000000001,4.84 78.76,4.84 81.64000000000001,4.84 81.96000000000001,4.84 84.84000000000002,4.84 84.84000000000002,5.16 81.96000000000001,5.16 81.96000000000001,31.506666666666668 81.64000000000001,31.826666666666668 78.76,31.826666666666668 78.44000000000001,31.826666666666668 75.56,31.826666666666668 75.24000000000001,31.826666666666668 72.36,31.826666666666668 72.36,58.17333333333334 72.04,58.49333333333333 69.16,58.49333333333333 69.16,84.84 69.16,85.16 69.16,111.50666666666667 68.84000000000002,111.50666666666667 68.84000000000002,85.16 68.84000000000002,84.84 68.84000000000002,58.49333333333333 68.84000000000002,58.17333333333334 68.84000000000002,31.826666666666668 69.16,31.826666666666668 69.16,58.17333333333334 72.04,58.17333333333334 72.04,31.826666666666668 72.36,31.506666666666668 75.24000000000001,31.506666666666668 75.56,31.506666666666668 78.44000000000001,31.506666666666668 78.76,31.506666666666668 81.64000000000001,31.506666666666668 81.64000000000001,5.16 78.76,5.16 78.44000000000001,5.16 75.56,5.16 75.24000000000001,5.16 72.36,5.16 72.04,5.16 69.16,5.16 68.84000000000002,5.16 65.96000000000001,5.16 65.64,5.16 62.76,5.16 62.44000000000001,5.16 59.56,5.16 59.24000000000001,5.16 56.36,5.16 56.040000000000006,5.16 53.16,5.16 53.16,31.506666666666668 56.040000000000006,31.506666666666668 56.36,31.506666666666668 59.24000000000001,31.506666666666668 59.56,31.506666666666668 62.44000000000001,31.506666666666668 62.76,31.506666666666668 65.64,31.506666666666668 65.64,31.826666666666668 62.76,31.826666666666668 62.76,58.17333333333334 62.76,58.49333333333333 62.76,84.84 62.76,85.16 62.76,111.50666666666667 62.76,111.82666666666667 62.76,138.17333333333335 62.44000000000001,138.49333333333334 59.56,138.49333333333334 59.24000000000001,138.49333333333334 56.36,138.49333333333334 56.040000000000006,138.49333333333334 53.16,138.49333333333334 52.84000000000001,138.49333333333334 49.96,138.49333333333334 49.64000000000001,138.49333333333334 46.76,138.49333333333334 46.76,164.84 46.76,165.16 46.76,191.50666666666666 46.44000000000001,191.82666666666668 43.56,191.82666666666668 43.56,218.17333333333335 43.24000000000001,218.49333333333334 40.36,218.49333333333334 40.040000000000006,218.49333333333334 37.16,218.49333333333334 36.84,218.17333333333335 36.84,191.82666666666668 36.84,191.50666666666666 36.84,165.16 33.959999999999994,165.16 33.959999999999994,191.50666666666666 33.959999999999994,191.82666666666668 33.959999999999994,218.17333333333335 33.64000000000001,218.49333333333334 30.76,218.49333333333334 30.44,218.49333333333334 27.560000000000002,218.49333333333334 27.240000000000002,218.17333333333335 27.240000000000002,191.82666666666668 27.240000000000002,191.50666666666666 27.240000000000002,165.16 24.360000000000003,165.16 24.04,165.16 21.16,165.16 20.84,164.84 20.84,138.49333333333334 21.16,138.49333333333334 21.16,164.84 24.04,164.84 24.04,138.49333333333334 24.04,138.17333333333335 24.04,111.82666666666667 24.04,111.50666666666667 24.04,85.16 21.16,85.16 21.16,111.50666666666667 20.84,111.82666666666667 17.96,111.82666666666667 17.64,111.82666666666667 14.760000000000002,111.82666666666667 14.760000000000002,138.17333333333335 17.64,138.17333333333335 17.96,138.49333333333334 17.96,164.84 17.96,165.16 17.96,191.50666666666666 17.96,191.82666666666668 17.96,218.17333333333335 20.84,218.17333333333335 20.84,191.82666666666668 21.16,191.50666666666666 24.04,191.50666666666666 24.04,191.82666666666668 21.16,191.82666666666668 21.16,218.17333333333335 20.84,218.49333333333334 17.96,218.49333333333334 17.64,218.17333333333335 17.64,191.82666666666668 17.64,191.50666666666666 17.64,165.16 17.64,164.84 17.64,138.49333333333334 14.760000000000002,138.49333333333334 14.440000000000001,138.17333333333335 14.440000000000001,111.82666666666667 14.760000000000002,111.50666666666667 17.64,111.50666666666667 17.96,111.50666666666667 20.84,111.50666666666667 20.84,85.16 21.16,84.84 24.04,84.84 24.04,58.49333333333333 24.04,58.17333333333334 24.04,31.826666666666668 21.16,31.826666666666668 21.16,31.506666666666668 24.04,31.506666666666668 24.360000000000003,31.826666666666668 24.360000000000003,58.17333333333334 24.360000000000003,58.49333333333333 24.360000000000003,84.84 24.360000000000003,85.16 24.360000000000003,111.50666666666667 24.360000000000003,111.82666666666667 24.360000000000003,138.17333333333335 24.360000000000003,138.49333333333334 24.360000000000003,164.84 27.240000000000002,164.84 27.560000000000002,165.16 27.560000000000002,191.50666666666666 27.560000000000002,191.82666666666668 27.560000000000002,218.17333333333335 30.44,218.17333333333335 30.76,218.17333333333335 33.64000000000001,218.17333333333335 33.64000000000001,191.82666666666668 33.64000000000001,191.50666666666666 33.64000000000001,165.16 33.959999999999994,164.84 36.84,164.84 36.84,138.49333333333334 37.16,138.17333333333335 40.040000000000006,138.17333333333335 40.040000000000006,111.82666666666667 40.36,111.50666666666667 43.24000000000001,111.50666666666667 43.24000000000001,85.16 43.24000000000001,84.84 43.24000000000001,58.49333333333333 43.56,58.49333333333333 43.56,84.84 46.44000000000001,84.84 46.76,84.84 49.64000000000001,84.84 49.64000000000001,58.49333333333333 49.64000000000001,58.17333333333334 49.64000000000001,31.826666666666668 49.96,31.826666666666668 49.96,58.17333333333334 52.84000000000001,58.17333333333334 53.16,58.17333333333334 56.040000000000006,58.17333333333334 56.36,58.17333333333334 59.24000000000001,58.17333333333334 59.24000000000001,58.49333333333333 56.36,58.49333333333333 56.36,84.84 56.36,85.16 56.36,111.50666666666667 59.24000000000001,111.50666666666667 59.24000000000001,111.82666666666667 56.36,111.82666666666667 56.040000000000006,111.82666666666667 53.16,111.82666666666667 52.84000000000001,111.82666666666667 49.96,111.82666666666667 49.96,111.50666666666667 52.84000000000001,111.50666666666667 53.16,111.50666666666667 56.040000000000006,111.50666666666667 56.040000000000006,85.16 56.040000000000006,84.84 56.040000000000006,58.49333333333333 53.16,58.49333333333333 52.84000000000001,58.49333333333333 49.96,58.49333333333333 49.96,84.84 52.84000000000001,84.84 52.84000000000001,85.16 49.96,85.16 49.64000000000001,85.16 46.76,85.16 46.44000000000001,85.16 43.56,85.16 43.56,111.50666666666667 43.24000000000001,111.82666666666667 40.36,111.82666666666667 40.36,138.17333333333335 40.36,138.49333333333334 40.36,164.84 43.24000000000001,164.84 43.24000000000001,165.16 40.36,165.16 40.36,191.50666666666666 40.040000000000006,191.50666666666666 40.040000000000006,165.16 40.040000000000006,164.84 40.040000000000006,138.49333333333334 37.16,138.49333333333334 37.16,164.84 37.16,165.16 37.16,191.50666666666666 37.16,191.82666666666668 37.16,218.17333333333335 40.040000000000006,218.17333333333335 40.36,218.17333333333335 43.24000000000001,218.17333333333335 43.24000000000001,191.82666666666668 43.56,191.50666666666666 46.44000000000001,191.50666666666666 46.44000000000001,165.16 46.44000000000001,164.84 46.44000000000001,138.49333333333334 43.56,138.49333333333334 43.56,138.17333333333335 46.44000000000001,138.17333333333335 46.44000000000001,111.82666666666667 46.76,111.82666666666667 46.76,138.17333333333335 49.64000000000001,138.17333333333335 49.96,138.17333333333335 52.84000000000001,138.17333333333335 53.16,138.17333333333335 56.040000000000006,138.17333333333335 56.36,138.17333333333335 59.24000000000001,138.17333333333335 59.56,138.17333333333335 62.44000000000001,138.17333333333335 62.44000000000001,111.82666666666667 62.44000000000001,111.50666666666667 62.44000000000001,85.16 59.56,85.16 59.56,84.84 62.44000000000001,84.84 62.44000000000001,58.49333333333333 62.44000000000001,58.17333333333334 62.44000000000001,31.826666666666668 59.56,31.826666666666668 59.24000000000001,31.826666666666668 56.36,31.826666666666668 56.040000000000006,31.826666666666668 53.16,31.826666666666668 52.84000000000001,31.506666666666668 52.84000000000001,5.16 49.96,5.16 49.64000000000001,5.16 46.76,5.16 46.44000000000001,5.16 43.56,5.16 43.24000000000001,5.16 40.36,5.16 40.040000000000006,5.16 37.16,5.16 37.16,31.506666666666668 37.16,31.826666666666668 37.16,58.17333333333334 36.84,58.17333333333334 36.84,31.826666666666668 36.84,31.506666666666668 36.84,5.16 33.959999999999994,5.16 33.64000000000001,5.16 30.76,5.16 30.76,31.506666666666668 30.44,31.506666666666668 30.44,5.16 27.560000000000002,5.16 27.560000000000002,31.506666666666668 27.560000000000002,31.826666666666668 27.560000000000002,58.17333333333334 27.560000000000002,58.49333333333333 27.560000000000002,84.84 27.560000000000002,85.16 27.560000000000002,111.50666666666667 27.560000000000002,111.82666666666667 27.560000000000002,138.17333333333335 30.44,138.17333333333335 30.76,138.17333333333335 33.64000000000001,138.17333333333335 33.64000000000001,111.82666666666667 30.76,111.82666666666667 30.76,111.50666666666667 33.64000000000001,111.50666666666667 33.959999999999994,111.50666666666667 36.84,111.50666666666667 36.84,85.16 33.959999999999994,85.16 33.64000000000001,85.16 30.76,85.16 30.76,84.84 33.64000000000001,84.84 33.64000000000001,58.49333333333333 30.76,58.49333333333333 30.76,58.17333333333334 33.64000000000001,58.17333333333334 33.64000000000001,31.826666666666668 33.959999999999994,31.826666666666668 33.959999999999994,58.17333333333334 33.959999999999994,58.49333333333333 33.959999999999994,84.84 36.84,84.84 37.16,84.84 40.040000000000006,84.84 40.040000000000006,58.49333333333333 40.040000000000006,58.17333333333334 40.040000000000006,31.826666666666668 40.36,31.506666666666668 43.24000000000001,31.506666666666668 43.56,31.506666666666668 46.44000000000001,31.506666666666668 46.76,31.826666666666668 46.76,58.17333333333334 46.44000000000001,58.17333333333334 46.44000000000001,31.826666666666668 43.56,31.826666666666668 43.24000000000001,31.826666666666668 40.36,31.826666666666668 40.36,58.17333333333334 40.36,58.49333333333333 40.36,84.84 40.040000000000006,85.16 37.16,85.16 37.16,111.50666666666667 36.84,111.82666666666667 33.959999999999994,111.82666666666667 33.959999999999994,138.17333333333335 33.64000000000001,138.49333333333334 30.76,138.49333333333334 30.76,164.84 30.76,165.16 30.76,191.50666666666666 30.44,191.50666666666666 30.44,165.16 30.44,164.84 30.44,138.49333333333334 27.560000000000002,138.49333333333334 27.240000000000002,138.17333333333335 27.240000000000002,111.82666666666667 27.240000000000002,111.50666666666667 27.240000000000002,85.16 27.240000000000002,84.84 27.240000000000002,58.49333333333333 27.240000000000002,58.17333333333334 27.240000000000002,31.826666666666668 27.240000000000002,31.506666666666668 27.240000000000002,5.16 24.360000000000003,5.16 24.04,5.16 21.16,5.16 20.84,5.16 17.96,5.16 17.96,31.506666666666668 17.96,31.826666666666668 17.96,58.17333333333334 20.84,58.17333333333334 20.84,58.49333333333333 17.96,58.49333333333333 17.64,58.17333333333334 17.64,31.826666666666668 17.64,31.506666666666668 17.64,5.16 14.760000000000002,5.16 14.440000000000001,5.16 11.56,5.16 11.56,31.506666666666668 11.56,31.826666666666668 11.56,58.17333333333334 11.239999999999998,58.17333333333334 11.239999999999998,31.826666666666668 11.239999999999998,31.506666666666668 11.239999999999998,5.16 8.36,5.16 8.04,5.16 5.16,5.16 5.16,31.506666666666668 8.04,31.506666666666668 8.36,31.826666666666668 8.36,58.17333333333334 8.36,58.49333333333333 8.36,84.84 8.04,84.84 8.04,58.49333333333333 8.04,58.17333333333334 8.04,31.826666666666668 5.16,31.826666666666668 5.16,58.17333333333334 5.16,58.49333333333333 5.16,84.84 5.16,85.16 5.16,111.50666666666667 5.16,111.82666666666667 5.16,138.17333333333335 5.16,138.49333333333334 5.16,164.84 5.16,165.16 5.16,191.50666666666666 5.16,191.82666666666668 5.16,218.17333333333335 8.04,218.17333333333335 8.04,191.82666666666668 8.04,191.50666666666666 8.04,165.16 8.36,164.84 11.239999999999998,164.84 11.239999999999998,138.49333333333334 8.36,138.49333333333334 8.04,138.17333333333335 8.04,111.82666666666667 8.36,111.50666666666667 11.239999999999998,111.50666666666667 11.239999999999998,85.16 11.56,84.84 14.440000000000001,84.84 14.440000000000001,58.49333333333333 14.440000000000001,58.17333333333334 14.440000000000001,31.826666666666668 14.760000000000002,31.826666666666668 14.760000000000002,58.17333333333334 14.760000000000002,58.49333333333333 14.760000000000002,84.84 17.64,84.84 17.64,85.16 14.760000000000002,85.16 14.440000000000001,85.16 11.56,85.16 11.56,111.50666666666667 11.239999999999998,111.82666666666667 8.36,111.82666666666667 8.36,138.17333333333335 11.239999999999998,138.17333333333335 11.56,138.49333333333334 11.56,164.84 14.440000000000001,164.84 14.760000000000002,165.16 14.760000000000002,191.50666666666666 14.760000000000002,191.82666666666668 14.760000000000002,218.17333333333335 14.440000000000001,218.17333333333335 14.440000000000001,191.82666666666668 14.440000000000001,191.50666666666666 14.440000000000001,165.16 11.56,165.16 11.239999999999998,165.16 8.36,165.16 8.36,191.50666666666666 8.36,191.82666666666668 8.36,218.17333333333335 8.04,218.49333333333334 5.16,218.49333333333334 4.84,218.17333333333335 4.84,191.82666666666668 4.84,191.50666666666666 4.84,165.16 4.84,164.84 4.84,138.49333333333334 4.84,138.17333333333335 4.84,111.82666666666667 4.84,111.50666666666667 4.84,85.16 4.84,84.84 4.84,58.49333333333333 4.84,58.17333333333334 4.84,31.826666666666668 4.84,31.506666666666668 4.84,5.16"  stroke="none"  fill="black" />
    <polygon points="75.56,58.17333333333334 78.44000000000001,58.17333333333334 78.76,58.17333333333334 81.64000000000001,58.17333333333334 81.96000000000001,58.17333333333334 84.84000000000002,58.17333333333334 84.84000000000002,31.826666666666668 85.16,31.826666666666668 85.16,58.17333333333334 85.16,58.49333333333333 85.16,84.84 85.16,85.16 85.16,111.50666666666667 85.16,111.82666666666667 85.16,138.17333333333335 85.16,138.49333333333334 85.16,164.84 85.16,165.16 85.16,191.50666666666666 85.16,191.82666666666668 85.16,218.17333333333335 85.16,218.49333333333334 85.16,244.84 84.84000000000002,245.16 81.96000000000001,245.16 81.64000000000001,245.16 78.76,245.16 78.44000000000001,245.16 75.56,245.16 75.24000000000001,245.16 72.36,245.16 72.04,245.16 69.16,245.16 68.84000000000002,245.16 65.96000000000001,245.16 65.64,245.16 62.76,245.16 62.44000000000001,245.16 59.56,245.16 59.24000000000001,245.16 56.36,245.16 56.040000000000006,245.16 53.16,245.16 52.84000000000001,245.16 49.96,245.16 49.64000000000001,245.16 46.76,245.16 46.44000000000001,245.16 43.56,245.16 43.24000000000001,245.16 40.36,245.16 40.040000000000006,245.16 37.16,245.16 36.84,245.16 33.959999999999994,245.16 33.64000000000001,245.16 30.76,245.16 30.44,245.16 27.560000000000002,245.16 27.240000000000002,245.16 24.360000000000003,245.16 24.04,245.16 21.16,245.16 20.84,245.16 17.96,245.16 17.64,245.16 14.760000000000002,245.16 14.440000000000001,245.16 11.56,245.16 11.239999999999998,245.16 8.36,245.16 8.04,245.16 5.16,245.16 5.16,244.84 8.04,244.84 8.36,244.84 11.239999999999998,244.84 11.239999999999998,218.49333333333334 11.239999999999998,218.17333333333335 11.239999999999998,191.82666666666668 11.56,191.82666666666668 11.56,218.17333333333335 11.56,218.49333333333334 11.56,244.84 14.440000000000001,244.84 14.760000000000002,244.84 17.64,244.84 17.96,244.84 20.84,244.84 21.16,244.84 24.04,244.84 24.04,218.49333333333334 24.360000000000003,218.49333333333334 24.360000000000003,244.84 27.240000000000002,244.84 27.560000000000002,244.84 30.44,244.84 30.76,244.84 33.64000000000001,244.84 33.959999999999994,244.84 36.84,244.84 37.16,244.84 40.040000000000006,244.84 40.36,244.84 43.24000000000001,244.84 43.56,244.84 46.44000000000001,244.84 46.44000000000001,218.49333333333334 46.76,218.17333333333335 49.64000000000001,218.17333333333335 49.64000000000001,191.82666666666668 49.64000000000001,191.50666666666666 49.64000000000001,165.16 49.96,164.84 52.84000000000001,164.84 53.16,164.84 56.040000000000006,164.84 56.36,164.84 59.24000000000001,164.84 59.56,164.84 62.44000000000001,164.84 62.44000000000001,165.16 59.56,165.16 59.24000000000001,165.16 56.36,165.16 56.040000000000006,165.16 53.16,165.16 52.84000000000001,165.16 49.96,165.16 49.96,191.50666666666666 49.96,191.82666666666668 49.96,218.17333333333335 49.64000000000001,218.49333333333334 46.76,218.49333333333334 46.76,244.84 49.64000000000001,244.84 49.96,244.84 52.84000000000001,244.84 52.84000000000001,218.49333333333334 52.84000000000001,218.17333333333335 52.84000000000001,191.82666666666668 53.16,191.50666666666666 56.040000000000006,191.50666666666666 56.36,191.50666666666666 59.24000000000001,191.50666666666666 59.56,191.50666666666666 62.44000000000001,191.50666666666666 62.44000000000001,191.82666666666668 59.56,191.82666666666668 59.24000000000001,191.82666666666668 56.36,191.82666666666668 56.040000000000006,191.82666666666668 53.16,191.82666666666668 53.16,218.17333333333335 53.16,218.49333333333334 53.16,244.84 56.040000000000006,244.84 56.36,244.84 59.24000000000001,244.84 59.56,244.84 62.44000000000001,244.84 62.76,244.84 65.64,244.84 65.96000000000001,244.84 68.84000000000002,244.84 69.16,244.84 72.04,244.84 72.36,244.84 75.24000000000001,244.84 75.24000000000001,218.49333333333334 75.56,218.17333333333335 78.44000000000001,218.17333333333335 78.44000000000001,218.49333333333334 75.56,218.49333333333334 75.56,244.84 78.44000000000001,244.84 78.76,244.84 81.64000000000001,244.84 81.64000000000001,218.49333333333334 81.64000000000001,218.17333333333335 81.64000000000001,191.82666666666668 78.76,191.82666666666668 78.44000000000001,191.82666666666668 75.56,191.82666666666668 75.24000000000001,191.82666666666668 72.36,191.82666666666668 72.04,191.82666666666668 69.16,191.82666666666668 68.84000000000002,191.82666666666668 65.96000000000001,191.82666666666668 65.96000000000001,218.17333333333335 68.84000000000002,218.17333333333335 69.16,218.17333333333335 72.04,218.17333333333335 72.04,218.49333333333334 69.16,218.49333333333334 68.84000000000002,218.49333333333334 65.96000000000001,218.49333333333334 65.64,218.49333333333334 62.76,218.49333333333334 62.44000000000001,218.49333333333334 59.56,218.49333333333334 59.24000000000001,218.49333333333334 56.36,218.49333333333334 56.36,218.17333333333335 59.24000000000001,218.17333333333335 59.56,218.17333333333335 62.44000000000001,218.17333333333335 62.76,218.17333333333335 65.64,218.17333333333335 65.64,191.82666666666668 65.64,191.50666666666666 65.64,165.16 65.64,164.84 65.64,138.49333333333334 65.64,138.17333333333335 65.64,111.82666666666667 65.64,111.50666666666667 65.64,85.16 65.64,84.84 65.64,58.49333333333333 65.96000000000001,58.49333333333333 65.96000000000001,84.84 65.96000000000001,85.16 65.96000000000001,111.50666666666667 65.96000000000001,111.82666666666667 65.96000000000001,138.17333333333335 68.84000000000002,138.17333333333335 69.16,138.17333333333335 72.04,138.17333333333335 72.04,111.82666666666667 72.36,111.82666666666667 72.36,138.17333333333335 72.36,138.49333333333334 72.36,164.84 72.04,164.84 72.04,138.49333333333334 69.16,138.49333333333334 68.84000000000002,138.49333333333334 65.96000000000001,138.49333333333334 65.96000000000001,164.84 65.96000000000001,165.16 65.96000000000001,191.50666666666666 68.84000000000002,191.50666666666666 68.84000000000002,165.16 69.16,165.16 69.16,191.50666666666666 72.04,191.50666666666666 72.36,191.50666666666666 75.24000000000001,191.50666666666666 75.56,191.50666666666666 78.44000000000001,191.50666666666666 78.44000000000001,165.16 75.56,165.16 75.24000000000001,164.84 75.24000000000001,138.49333333333334 75.56,138.17333333333335 78.44000000000001,138.17333333333335 78.44000000000001,111.82666666666667 78.76,111.82666666666667 78.76,138.17333333333335 78.44000000000001,138.49333333333334 75.56,138.49333333333334 75.56,164.84 78.44000000000001,164.84 78.76,165.16 78.76,191.50666666666666 81.64000000000001,191.50666666666666 81.64000000000001,165.16 81.64000000000001,164.84 81.64000000000001,138.49333333333334 81.64000000000001,138.17333333333335 81.64000000000001,111.82666666666667 81.64000000000001,111.50666666666667 81.64000000000001,85.16 78.76,85.16 78.44000000000001,85.16 75.56,85.16 75.56,111.50666666666667 75.24000000000001,111.50666666666667 75.24000000000001,85.16 72.36,85.16 72.36,84.84 75.24000000000001,84.84 75.56,84.84 78.44000000000001,84.84 78.76,84.84 81.64000000000001,84.84 81.96000000000001,85.16 81.96000000000001,111.50666666666667 81.96000000000001,111.82666666666667 81.96000000000001,138.17333333333335 81.96000000000001,138.49333333333334 81.96000000000001,164.84 81.96000000000001,165.16 81.96000000000001,191.50666666666666 81.96000000000001,191.82666666666668 81.96000000000001,218.17333333333335 81.96000000000001,218.49333333333334 81.96000000000001,244.84 84.84000000000002,244.84 84.84000000000002,218.49333333333334 84.84000000000002,218.17333333333335 84.84000000000002,191.82666666666668 84.84000000000002,191.50666666666666 84.84000000000002,165.16 84.84000000000002,164.84 84.84000000000002,138.49333333333334 84.84000000000002,138.17333333333335 84.84000000000002,111.82666666666667 84.84000000000002,111.50666666666667 84.84000000000002,85.16 84.84000000000002,84.84 84.84000000000002,58.49333333333333 81.96000000000001,58.49333333333333 81.64000000000001,58.49333333333333 78.76,58.49333333333333 78.44000000000001,58.49333333333333 75.56,58.49333333333333"  stroke="none"  fill="black" />
  </g>
</svg>
