<?xml version="1.0" standalone="no"?>
<!DOCTYPE svg PUBLIC "-//W3C//DTD SVG 1.1//EN"
"http://www.w3.org/Graphics/SVG/1.1/DTD/svg11.dtd">
<svg viewBox="0 0 110 110"  xmlns="http://www.w3.org/2000/svg" >
  <rect x="0"  y="0"  width="110"  height="110"  fill="#ff9999"  stroke="none" />
  <g >
    <polygon points="50.45,13.55 58.55,13.55 59.45,14.45 59.45,22.55 58.55,22.55 58.55,14.45 50.45,14.45 50.45,22.55 50.45,23.45 50.45,31.55 49.55,32.45 41.45,32.45 41.45,40.55 41.45,41.45 41.45,49.55 41.45,50.45 41.45,58.55 41.45,59.45 41.45,67.55 41.45,68.45 41.45,76.55 41.45,77.45 41.45,85.55 40.55,85.55 40.55,77.45 32.45,77.45 31.55,76.55 31.55,68.45 32.45,68.45 32.45,76.55 40.55,76.55 40.55,68.45 40.55,67.55 40.55,59.45 32.45,59.45 31.55,59.45 23.45,59.45 22.55,59.45 14.45,59.45 14.45,58.55 22.55,58.55 22.55,50.45 22.55,49.55 22.55,41.45 14.45,41.45 13.55,41.45 5.45,41.45 5.45,49.55 13.55,49.55 13.55,50.45 5.45,50.45 5.45,58.55 5.45,59.45 5.45,67.55 13.55,67.55 14.45,67.55 22.55,67.55 23.45,68.45 23.45,76.55 22.55,77.45 14.45,77.45 14.45,85.55 13.55,85.55 13.55,77.45 14.45,76.55 22.55,76.55 22.55,68.45 14.45,68.45 13.55,68.45 5.45,68.45 5.45,76.55 5.45,77.45 5.45,85.55 5.45,86.45 5.45,94.55 13.55,94.55 14.45,94.55 22.55,94.55 23.45,94.55 31.55,94.55 31.55,86.45 23.45,86.45 23.45,85.55 31.55,85.55 32.45,86.45 32.45,94.55 40.55,94.55 41.45,94.55 49.55,94.55 50.45,94.55 58.55,94.55 58.55,86.45 58.55,85.55 58.55,77.45 50.45,77.45 50.45,85.55 49.55,85.55 49.55,77.45 49.55,76.55 49.55,68.45 50.45,67.55 58.55,67.55 59.45,67.55 67.55,67.55 67.55,59.45 59.45,59.45 58.55,59.45 50.45,59.45 49.55,58.55 49.55,50.45 50.45,50.45 50.45,58.55 58.55,58.55 59.45,58.55 67.55,58.55 68.45,58.55 76.55,58.55 77.45,59.45 77.45,67.55 85.55,67.55 86.45,68.45 86.45,76.55 86.45,77.45 86.45,85.55 85.55,85.55 85.55,77.45 77.45,77.45 76.55,77.45 68.45,77.45 68.45,85.55 67.55,85.55 67.55,77.45 68.45,76.55 76.55,76.55 77.45,76.55 85.55,76.55 85.55,68.45 77.45,68.45 76.55,67.55 76.55,59.45 68.45,59.45 68.45,67.55 67.55,68.45 59.45,68.45 58.55,68.45 50.45,68.45 50.45,76.55 58.55,76.55 59.45,77.45 59.45,85.55 59.45,86.45 59.45,94.55 67.55,94.55 68.45,94.55 76.55,94.55 76.55,86.45 77.45,86.45 77.45,94.55 85.55,94.55 86.45,94.55 94.55,94.55 94.55,95.45 86.45,95.45 85.55,95.45 77.45,95.45 76.55,95.45 68.45,95.45 67.55,95.45 59.45,95.45 58.55,95.45 50.45,95.45 49.55,95.45 41.45,95.45 40.55,95.45 32.45,95.45 31.55,95.45 23.45,95.45 22.55,95.45 14.45,95.45 13.55,95.45 5.45,95.45 4.55,94.55 4.55,86.45 4.55,85.55 4.55,77.45 4.55,76.55 4.55,68.45 4.55,67.55 4.55,59.45 4.55,58.55 4.55,50.45 4.55,49.55 4.55,41.45 4.55,40.55 4.55,32.45 4.55,31.55 4.55,23.45 4.55,22.55 4.55,14.45 5.45,14.45 5.45,22.55 5.45,23.45 5.45,31.55 5.45,32.45 5.45,40.55 13.55,40.55 14.45,40.55 22.55,40.55 23.45,41.45 23.45,49.55 23.45,50.45 23.45,58.55 31.55,58.55 32.45,58.55 40.55,58.55 40.55,50.45 40.55,49.55 40.55,41.45 40.55,40.55 40.55,32.45 41.45,31.55 49.55,31.55 49.55,23.45 49.55,22.55 49.55,14.45"  stroke="none"  fill="#0000ff" />
    <polygon points="5.45,4.55 13.55,4.55 14.45,4.55 22.55,4.55 23.45,4.55 31.55,4.55 32.45,4.55 40.55,4.55 41.45,4.55 49.55,4.55 50.45,4.55 58.55,4.55 59.45,4.55 67.55,4.55 68.45,4.55 76.55,4.55 77.45,4.55 85.55,4.55 86.45,4.55 94.55,4.55 95.45,5.45 95.45,13.55 95.45,14.45 95.45,22.55 95.45,23.45 95.45,31.55 95.45,32.45 95.45,40.55 95.45,41.45 95.45,49.55 95.45,50.45 95.45,58.55 95.45,59.45 95.45,67.55 95.45,68.45 95.45,76.55 95.45,77.45 95.45,85.55 94.55,85.55 94.55,77.45 94.55,76.55 94.55,68.45 94.55,67.55 94.55,59.45 94.55,58.55 94.55,50.45 94.55,49.55 94.55,41.45 94.55,40.55 94.55,32.45 94.55,31.55 94.55,23.45 94.55,22.55 94.55,14.45 94.55,13.55 94.55,5.45 86.45,5.45 86.45,13.55 86.45,14.45 86.45,22.55 86.45,23.45 86.45,31.55 86.45,32.45 86.45,40.55 86.45,41.45 86.45,49.55 86.45,50.45 86.45,58.55 85.55,58.55 85.55,50.45 77.45,50.45 76.55,50.45 68.45,50.45 67.55,50.45 59.45,50.45 58.55,49.55 58.55,41.45 50.45,41.45 50.45,40.55 58.55,40.55 59.45,41.45 59.45,49.55 67.55,49.55 68.45,49.55 76.55,49.55 76.55,41.45 77.45,41.45 77.45,49.55 85.55,49.55 85.55,41.45 85.55,40.55 85.55,32.45 85.55,31.55 85.55,23.45 77.45,23.45 77.45,31.55 76.55,31.55 76.55,23.45 77.45,22.55 85.55,22.55 85.55,14.45 85.55,13.55 85.55,5.45 77.45,5.45 76.55,5.45 68.45,5.45 68.45,13.55 76.55,13.55 76.55,14.45 68.45,14.45 68.45,22.55 68.45,23.45 68.45,31.55 68.45,32.45 68.45,40.55 67.55,40.55 67.55,32.45 59.45,32.45 59.45,31.55 67.55,31.55 67.55,23.45 67.55,22.55 67.55,14.45 67.55,13.55 67.55,5.45 59.45,5.45 58.55,5.45 50.45,5.45 49.55,5.45 41.45,5.45 40.55,5.45 32.45,5.45 31.55,5.45 23.45,5.45 23.45,13.55 23.45,14.45 23.45,22.55 22.55,22.55 22.55,14.45 22.55,13.55 22.55,5.45 14.45,5.45 14.45,13.55 14.45,14.45 14.45,22.55 14.45,23.45 14.45,31.55 22.55,31.55 23.45,31.55 31.55,31.55 31.55,23.45 32.45,22.55 40.55,22.55 40.55,14.45 32.45,14.45 32.45,13.55 40.55,13.55 41.45,14.45 41.45,22.55 40.55,23.45 32.45,23.45 32.45,31.55 32.45,32.45 32.45,40.55 32.45,41.45 32.45,49.55 31.55,49.55 31.55,41.45 31.55,40.55 31.55,32.45 23.45,32.45 22.55,32.45 14.45,32.45 13.55,31.55 13.55,23.45 13.55,22.55 13.55,14.45 13.55,13.55 13.55,5.45 5.45,5.45"  stroke="none"  fill="#0000ff" />
  </g>
  <polyline points="9.5,9.5 9.5,18.5 9.5,27.5 9.5,36.5 18.5,36.5 27.5,36.5 27.5,45.5 27.5,54.5 36.5,54.5 36.5,45.5 36.5,36.5 36.5,27.5 45.5,27.5 45.5,18.5 45.5,9.5 54.5,9.5 63.5,9.5 63.5,18.5 63.5,27.5 54.5,27.5 54.5,36.5 45.5,36.5 45.5,45.5 54.5,45.5 54.5,54.5 63.5,54.5 72.5,54.5 81.5,54.5 81.5,63.5 90.5,63.5 90.5,72.5 90.5,81.5 90.5,90.5"  stroke="#009900"  fill="none"  stroke-dasharray="5,5" />
</svg>
