<?xml version="1.0" standalone="no"?>
<!DOCTYPE svg PUBLIC "-//W3C//DTD SVG 1.1//EN"
"http://www.w3.org/Graphics/SVG/1.1/DTD/svg11.dtd">
<svg viewBox="0 0 210 210"  xmlns="http://www.w3.org/2000/svg" >
  <g >
    <polygon points="157.475,4.525 166.025,4.525 166.975,4.525 175.525,4.525 176.475,4.525 185.025,4.525 185.975,4.525 194.525,4.525 195.475,5.475 195.475,14.025 195.475,14.975 195.475,23.525 195.475,24.475 195.475,33.025 195.475,33.975 195.475,42.525 195.475,43.475 195.475,52.025 195.475,52.975 195.475,61.525 195.475,62.475 195.475,71.025 195.475,71.975 195.475,80.525 195.475,81.475 195.475,90.025 195.475,90.975 195.475,99.525 195.475,100.475 195.475,109.025 195.475,109.975 195.475,118.525 195.475,119.475 195.475,128.025 195.475,128.975 195.475,137.525 195.475,138.475 195.475,147.025 195.475,147.975 195.475,156.525 195.475,157.475 195.475,166.025 195.475,166.975 195.475,175.525 195.475,176.475 195.475,185.025 195.475,185.975 195.475,194.525 194.525,195.475 185.975,195.475 185.025,195.475 176.475,195.475 175.525,195.475 166.975,195.475 166.025,195.475 157.475,195.475 156.525,195.475 147.975,195.475 147.025,195.475 138.475,195.475 137.525,195.475 128.975,195.475 128.025,195.475 119.475,195.475 118.525,195.475 109.975,195.475 109.025,195.475 100.475,195.475 99.525,195.475 90.975,195.475 90.025,195.475 81.475,195.475 80.525,195.475 71.975,195.475 71.025,195.475 62.475,195.475 61.525,195.475 52.975,195.475 52.025,195.475 43.475,195.475 42.525,195.475 33.975,195.475 33.025,195.475 24.475,195.475 23.525,195.475 14.975,195.475 14.025,195.475 5.475,195.475 4.525,194.525 4.525,185.975 4.525,185.025 4.525,176.475 4.525,175.525 4.525,166.975 4.525,166.025 4.525,157.475 5.475,157.475 5.475,166.025 5.475,166.975 5.475,175.525 14.025,175.525 14.025,176.475 5.475,176.475 5.475,185.025 5.475,185.975 5.475,194.525 14.025,194.525 14.025,185.975 14.975,185.975 14.975,194.525 23.525,194.525 23.525,185.975 23.525,185.025 23.525,176.475 23.525,175.525 23.525,166.975 14.975,166.975 14.025,166.025 14.025,157.475 14.975,156.525 23.525,156.525 23.525,147.975 23.525,147.025 23.525,138.475 14.975,138.475 14.975,137.525 23.525,137.525 23.525,128.975 23.525,128.025 23.525,119.475 23.525,118.525 23.525,109.975 14.975,109.975 14.975,109.025 23.525,109.025 24.475,109.025 33.025,109.025 33.025,100.475 33.975,100.475 33.975,109.025 33.025,109.975 24.475,109.975 24.475,118.525 24.475,119.475 24.475,128.025 33.025,128.025 33.975,128.975 33.975,137.525 33.975,138.475 33.975,147.025 33.025,147.025 33.025,138.475 33.025,137.525 33.025,128.975 24.475,128.975 24.475,137.525 24.475,138.475 24.475,147.025 24.475,147.975 24.475,156.525 23.525,157.475 14.975,157.475 14.975,166.025 23.525,166.025 24.475,166.025 33.025,166.025 33.025,157.475 33.975,156.525 42.525,156.525 42.525,147.975 42.525,147.025 42.525,138.475 42.525,137.525 42.525,128.975 42.525,128.025 42.525,119.475 33.975,119.475 33.975,118.525 42.525,118.525 42.525,109.975 43.475,109.025 52.025,109.025 52.025,100.475 52.025,99.525 52.025,90.975 52.025,90.025 52.025,81.475 52.975,80.525 61.525,80.525 62.475,80.525 71.025,80.525 71.025,71.975 71.025,71.025 71.025,62.475 62.475,62.475 62.475,61.525 71.025,61.525 71.025,52.975 71.025,52.025 71.025,43.475 62.475,43.475 62.475,52.025 61.525,52.975 52.975,52.975 52.025,52.975 43.475,52.975 43.475,61.525 52.025,61.525 52.975,62.475 52.975,71.025 61.525,71.025 61.525,71.975 52.975,71.975 52.025,71.025 52.025,62.475 43.475,62.475 42.525,61.525 42.525,52.975 43.475,52.025 52.025,52.025 52.975,52.025 61.525,52.025 61.525,43.475 62.475,42.525 71.025,42.525 71.975,42.525 80.525,42.525 80.525,33.975 80.525,33.025 80.525,24.475 81.475,23.525 90.025,23.525 90.025,24.475 81.475,24.475 81.475,33.025 81.475,33.975 81.475,42.525 90.025,42.525 90.975,42.525 99.525,42.525 99.525,33.975 90.975,33.975 90.975,33.025 99.525,33.025 99.525,24.475 99.525,23.525 99.525,14.975 100.475,14.025 109.025,14.025 109.975,14.025 118.525,14.025 118.525,14.975 109.975,14.975 109.975,23.525 109.025,23.525 109.025,14.975 100.475,14.975 100.475,23.525 100.475,24.475 100.475,33.025 100.475,33.975 100.475,42.525 109.025,42.525 109.025,43.475 100.475,43.475 99.525,43.475 90.975,43.475 90.025,43.475 81.475,43.475 80.525,43.475 71.975,43.475 71.975,52.025 71.975,52.975 71.975,61.525 71.975,62.475 71.975,71.025 71.975,71.975 71.975,80.525 71.975,81.475 71.975,90.025 71.025,90.025 71.025,81.475 62.475,81.475 61.525,81.475 52.975,81.475 52.975,90.025 52.975,90.975 52.975,99.525 52.975,100.475 52.975,109.025 52.025,109.975 43.475,109.975 43.475,118.525 43.475,119.475 43.475,128.025 43.475,128.975 43.475,137.525 43.475,138.475 43.475,147.025 43.475,147.975 43.475,156.525 52.025,156.525 52.975,157.475 52.975,166.025 52.025,166.025 52.025,157.475 43.475,157.475 42.525,157.475 33.975,157.475 33.975,166.025 33.025,166.975 24.475,166.975 24.475,175.525 24.475,176.475 24.475,185.025 33.025,185.025 33.975,185.025 42.525,185.025 42.525,176.475 33.975,176.475 33.975,175.525 42.525,175.525 42.525,166.975 43.475,166.975 43.475,175.525 52.025,175.525 52.975,175.525 61.525,175.525 61.525,176.475 52.975,176.475 52.025,176.475 43.475,176.475 43.475,185.025 42.525,185.975 33.975,185.975 33.025,185.975 24.475,185.975 24.475,194.525 33.025,194.525 33.975,194.525 42.525,194.525 43.475,194.525 52.025,194.525 52.975,194.525 61.525,194.525 61.525,185.975 52.975,185.975 52.975,185.025 61.525,185.025 62.475,185.025 71.025,185.025 71.025,176.475 71.025,175.525 71.025,166.975 62.475,166.975 61.525,166.025 61.525,157.475 61.525,156.525 61.525,147.975 61.525,147.025 61.525,138.475 61.525,137.525 61.525,128.975 61.525,128.025 61.525,119.475 52.975,119.475 52.975,128.025 52.975,128.975 52.975,137.525 52.975,138.475 52.975,147.025 52.025,147.025 52.025,138.475 52.025,137.525 52.025,128.975 52.025,128.025 52.025,119.475 52.975,118.525 61.525,118.525 62.475,118.525 71.025,118.525 71.025,109.975 71.025,109.025 71.025,100.475 62.475,100.475 62.475,109.025 61.525,109.025 61.525,100.475 61.525,99.525 61.525,90.975 62.475,90.975 62.475,99.525 71.025,99.525 71.975,99.525 80.525,99.525 80.525,90.975 80.525,90.025 80.525,81.475 80.525,80.525 80.525,71.975 80.525,71.025 80.525,62.475 80.525,61.525 80.525,52.975 81.475,52.025 90.025,52.025 90.975,52.025 99.525,52.025 100.475,52.025 109.025,52.025 109.975,52.025 118.525,52.025 118.525,43.475 119.475,43.475 119.475,52.025 118.525,52.975 109.975,52.975 109.025,52.975 100.475,52.975 100.475,61.525 99.525,61.525 99.525,52.975 90.975,52.975 90.025,52.975 81.475,52.975 81.475,61.525 81.475,62.475 81.475,71.025 90.025,71.025 90.025,62.475 90.975,62.475 90.975,71.025 90.025,71.975 81.475,71.975 81.475,80.525 81.475,81.475 81.475,90.025 81.475,90.975 81.475,99.525 90.025,99.525 90.975,100.475 90.975,109.025 90.975,109.975 90.975,118.525 90.025,119.475 81.475,119.475 80.525,118.525 80.525,109.975 81.475,109.975 81.475,118.525 90.025,118.525 90.025,109.975 90.025,109.025 90.025,100.475 81.475,100.475 80.525,100.475 71.975,100.475 71.975,109.025 71.975,109.975 71.975,118.525 71.975,119.475 71.975,128.025 71.975,128.975 71.975,137.525 80.525,137.525 81.475,137.525 90.025,137.525 90.025,138.475 81.475,138.475 81.475,147.025 80.525,147.975 71.975,147.975 71.975,147.025 80.525,147.025 80.525,138.475 71.975,138.475 71.025,137.525 71.025,128.975 71.025,128.025 71.025,119.475 62.475,119.475 62.475,128.025 62.475,128.975 62.475,137.525 62.475,138.475 62.475,147.025 62.475,147.975 62.475,156.525 62.475,157.475 62.475,166.025 71.025,166.025 71.975,166.975 71.975,175.525 71.975,176.475 71.975,185.025 71.025,185.975 62.475,185.975 62.475,194.525 71.025,194.525 71.975,194.525 80.525,194.525 80.525,185.975 80.525,185.025 80.525,176.475 80.525,175.525 80.525,166.975 80.525,166.025 80.525,157.475 71.975,157.475 71.975,156.525 80.525,156.525 81.475,156.525 90.025,156.525 90.025,147.975 90.975,147.025 99.525,147.025 99.525,138.475 99.525,137.525 99.525,128.975 90.975,128.975 90.025,128.975 81.475,128.975 81.475,128.025 90.025,128.025 90.975,128.025 99.525,128.025 99.525,119.475 99.525,118.525 99.525,109.975 99.525,109.025 99.525,100.475 99.525,99.525 99.525,90.975 90.975,90.975 90.025,90.025 90.025,81.475 90.975,80.525 99.525,80.525 99.525,81.475 90.975,81.475 90.975,90.025 99.525,90.025 100.475,90.975 100.475,99.525 100.475,100.475 100.475,109.025 100.475,109.975 100.475,118.525 100.475,119.475 100.475,128.025 109.025,128.025 109.975,128.025 118.525,128.025 118.525,128.975 109.975,128.975 109.975,137.525 109.975,138.475 109.975,147.025 118.525,147.025 118.525,147.975 109.975,147.975 109.025,147.025 109.025,138.475 109.025,137.525 109.025,128.975 100.475,128.975 100.475,137.525 100.475,138.475 100.475,147.025 99.525,147.975 90.975,147.975 90.975,156.525 99.525,156.525 100.475,156.525 109.025,156.525 109.025,157.475 100.475,157.475 99.525,157.475 90.975,157.475 90.025,157.475 81.475,157.475 81.475,166.025 81.475,166.975 81.475,175.525 81.475,176.475 81.475,185.025 81.475,185.975 81.475,194.525 90.025,194.525 90.025,185.975 90.025,185.025 90.025,176.475 90.975,175.525 99.525,175.525 99.525,166.975 90.975,166.975 90.975,166.025 99.525,166.025 100.475,166.025 109.025,166.025 109.975,166.025 118.525,166.025 118.525,157.475 119.475,156.525 128.025,156.525 128.025,147.975 128.025,147.025 128.025,138.475 119.475,138.475 119.475,137.525 128.025,137.525 128.025,128.975 128.025,128.025 128.025,119.475 119.475,119.475 118.525,119.475 109.975,119.475 109.025,118.525 109.025,109.975 109.025,109.025 109.025,100.475 109.025,99.525 109.025,90.975 109.025,90.025 109.025,81.475 109.025,80.525 109.025,71.975 100.475,71.975 100.475,71.025 109.025,71.025 109.975,71.025 118.525,71.025 118.525,62.475 109.975,62.475 109.975,61.525 118.525,61.525 119.475,61.525 128.025,61.525 128.025,52.975 128.975,52.975 128.975,61.525 137.525,61.525 137.525,62.475 128.975,62.475 128.025,62.475 119.475,62.475 119.475,71.025 118.525,71.975 109.975,71.975 109.975,80.525 109.975,81.475 109.975,90.025 109.975,90.975 109.975,99.525 118.525,99.525 119.475,99.525 128.025,99.525 128.975,100.475 128.975,109.025 128.025,109.025 128.025,100.475 119.475,100.475 119.475,109.025 118.525,109.025 118.525,100.475 109.975,100.475 109.975,109.025 109.975,109.975 109.975,118.525 118.525,118.525 119.475,118.525 128.025,118.525 128.975,119.475 128.975,128.025 137.525,128.025 138.475,128.025 147.025,128.025 147.025,128.975 138.475,128.975 137.525,128.975 128.975,128.975 128.975,137.525 128.975,138.475 128.975,147.025 128.975,147.975 128.975,156.525 128.025,157.475 119.475,157.475 119.475,166.025 118.525,166.975 109.975,166.975 109.025,166.975 100.475,166.975 100.475,175.525 99.525,176.475 90.975,176.475 90.975,185.025 99.525,185.025 100.475,185.025 109.025,185.025 109.025,176.475 109.975,176.475 109.975,185.025 109.025,185.975 100.475,185.975 99.525,185.975 90.975,185.975 90.975,194.525 99.525,194.525 100.475,194.525 109.025,194.525 109.975,194.525 118.525,194.525 119.475,194.525 128.025,194.525 128.025,185.975 128.025,185.025 128.025,176.475 119.475,176.475 119.475,185.025 118.525,185.025 118.525,176.475 119.475,175.525 128.025,175.525 128.975,176.475 128.975,185.025 137.525,185.025 137.525,176.475 137.525,175.525 137.525,166.975 128.975,166.975 128.975,166.025 137.525,166.025 137.525,157.475 137.525,156.525 137.525,147.975 137.525,147.025 137.525,138.475 138.475,138.475 138.475,147.025 138.475,147.975 138.475,156.525 138.475,157.475 138.475,166.025 138.475,166.975 138.475,175.525 147.025,175.525 147.975,175.525 156.525,175.525 157.475,176.475 157.475,185.025 156.525,185.975 147.975,185.975 147.975,185.025 156.525,185.025 156.525,176.475 147.975,176.475 147.025,176.475 138.475,176.475 138.475,185.025 137.525,185.975 128.975,185.975 128.975,194.525 137.525,194.525 138.475,194.525 147.025,194.525 147.975,194.525 156.525,194.525 157.475,194.525 166.025,194.525 166.025,185.975 166.025,185.025 166.025,176.475 166.025,175.525 166.025,166.975 157.475,166.975 156.525,166.975 147.975,166.975 147.025,166.025 147.025,157.475 147.025,156.525 147.025,147.975 147.025,147.025 147.025,138.475 147.975,138.475 147.975,147.025 156.525,147.025 156.525,147.975 147.975,147.975 147.975,156.525 147.975,157.475 147.975,166.025 156.525,166.025 157.475,166.025 166.025,166.025 166.975,166.975 166.975,175.525 175.525,175.525 175.525,176.475 166.975,176.475 166.975,185.025 166.975,185.975 166.975,194.525 175.525,194.525 175.525,185.975 176.475,185.025 185.025,185.025 185.025,176.475 185.025,175.525 185.025,166.975 185.025,166.025 185.025,157.475 176.475,157.475 176.475,166.025 175.525,166.025 175.525,157.475 166.975,157.475 166.025,157.475 157.475,157.475 157.475,156.525 166.025,156.525 166.025,147.975 166.025,147.025 166.025,138.475 157.475,138.475 156.525,137.525 156.525,128.975 156.525,128.025 156.525,119.475 147.975,119.475 147.025,119.475 138.475,119.475 138.475,118.525 147.025,118.525 147.025,109.975 147.975,109.975 147.975,118.525 156.525,118.525 156.525,109.975 157.475,109.025 166.025,109.025 166.025,100.475 166.025,99.525 166.025,90.975 166.975,90.975 166.975,99.525 166.975,100.475 166.975,109.025 166.025,109.975 157.475,109.975 157.475,118.525 157.475,119.475 157.475,128.025 166.025,128.025 166.025,128.975 157.475,128.975 157.475,137.525 166.025,137.525 166.975,138.475 166.975,147.025 166.975,147.975 166.975,156.525 175.525,156.525 176.475,156.525 185.025,156.525 185.025,147.975 176.475,147.975 175.525,147.025 175.525,138.475 175.525,137.525 175.525,128.975 175.525,128.025 175.525,119.475 166.975,119.475 166.975,118.525 175.525,118.525 175.525,109.975 176.475,109.975 176.475,118.525 176.475,119.475 176.475,128.025 176.475,128.975 176.475,137.525 176.475,138.475 176.475,147.025 185.025,147.025 185.975,147.975 185.975,156.525 185.975,157.475 185.975,166.025 185.975,166.975 185.975,175.525 185.975,176.475 185.975,185.025 185.025,185.975 176.475,185.975 176.475,194.525 185.025,194.525 185.975,194.525 194.525,194.525 194.525,185.975 194.525,185.025 194.525,176.475 194.525,175.525 194.525,166.975 194.525,166.025 194.525,157.475 194.525,156.525 194.525,147.975 194.525,147.025 194.525,138.475 185.975,138.475 185.025,137.525 185.025,128.975 185.025,128.025 185.025,119.475 185.975,119.475 185.975,128.025 185.975,128.975 185.975,137.525 194.525,137.525 194.525,128.975 194.525,128.025 194.525,119.475 194.525,118.525 194.525,109.975 194.525,109.025 194.525,100.475 185.975,100.475 185.975,109.025 185.025,109.025 185.025,100.475 176.475,100.475 175.525,99.525 175.525,90.975 175.525,90.025 175.525,81.475 166.975,81.475 166.025,81.475 157.475,81.475 157.475,90.025 157.475,90.975 157.475,99.525 156.525,100.475 147.975,100.475 147.025,100.475 138.475,100.475 138.475,109.025 137.525,109.025 137.525,100.475 137.525,99.525 137.525,90.975 128.975,90.975 128.975,90.025 137.525,90.025 138.475,90.975 138.475,99.525 147.025,99.525 147.975,99.525 156.525,99.525 156.525,90.975 156.525,90.025 156.525,81.475 157.475,80.525 166.025,80.525 166.975,80.525 175.525,80.525 175.525,71.975 176.475,71.975 176.475,80.525 176.475,81.475 176.475,90.025 176.475,90.975 176.475,99.525 185.025,99.525 185.975,99.525 194.525,99.525 194.525,90.975 194.525,90.025 194.525,81.475 185.975,81.475 185.975,90.025 185.025,90.025 185.025,81.475 185.025,80.525 185.025,71.975 185.025,71.025 185.025,62.475 176.475,62.475 175.525,62.475 166.975,62.475 166.975,71.025 166.025,71.975 157.475,71.975 156.525,71.975 147.975,71.975 147.025,71.975 138.475,71.975 137.525,71.975 128.975,71.975 128.975,80.525 137.525,80.525 138.475,80.525 147.025,80.525 147.975,81.475 147.975,90.025 147.025,90.025 147.025,81.475 138.475,81.475 137.525,81.475 128.975,81.475 128.025,81.475 119.475,81.475 119.475,90.025 118.525,90.025 118.525,81.475 119.475,80.525 128.025,80.525 128.025,71.975 128.975,71.025 137.525,71.025 138.475,71.025 147.025,71.025 147.025,62.475 147.025,61.525 147.025,52.975 138.475,52.975 137.525,52.025 137.525,43.475 128.975,43.475 128.025,42.525 128.025,33.975 119.475,33.975 118.525,33.975 109.975,33.975 109.975,33.025 118.525,33.025 118.525,24.475 119.475,23.525 128.025,23.525 128.025,14.975 128.975,14.975 128.975,23.525 128.025,24.475 119.475,24.475 119.475,33.025 128.025,33.025 128.975,33.025 137.525,33.025 138.475,33.025 147.025,33.025 147.025,24.475 147.025,23.525 147.025,14.975 147.975,14.975 147.975,23.525 156.525,23.525 157.475,23.525 166.025,23.525 166.975,23.525 175.525,23.525 175.525,14.975 176.475,14.975 176.475,23.525 185.025,23.525 185.025,24.475 176.475,24.475 175.525,24.475 166.975,24.475 166.975,33.025 166.025,33.975 157.475,33.975 157.475,33.025 166.025,33.025 166.025,24.475 157.475,24.475 156.525,24.475 147.975,24.475 147.975,33.025 147.975,33.975 147.975,42.525 156.525,42.525 156.525,43.475 147.975,43.475 147.025,42.525 147.025,33.975 138.475,33.975 137.525,33.975 128.975,33.975 128.975,42.525 137.525,42.525 138.475,43.475 138.475,52.025 147.025,52.025 147.975,52.975 147.975,61.525 156.525,61.525 156.525,62.475 147.975,62.475 147.975,71.025 156.525,71.025 157.475,71.025 166.025,71.025 166.025,62.475 166.025,61.525 166.025,52.975 157.475,52.975 157.475,52.025 166.025,52.025 166.025,43.475 166.975,42.525 175.525,42.525 176.475,43.475 176.475,52.025 175.525,52.025 175.525,43.475 166.975,43.475 166.975,52.025 166.975,52.975 166.975,61.525 175.525,61.525 176.475,61.525 185.025,61.525 185.975,62.475 185.975,71.025 185.975,71.975 185.975,80.525 194.525,80.525 194.525,71.975 194.525,71.025 194.525,62.475 194.525,61.525 194.525,52.975 194.525,52.025 194.525,43.475 194.525,42.525 194.525,33.975 185.975,33.975 185.975,42.525 185.975,43.475 185.975,52.025 185.025,52.025 185.025,43.475 185.025,42.525 185.025,33.975 176.475,33.975 176.475,33.025 185.025,33.025 185.975,33.025 194.525,33.025 194.525,24.475 194.525,23.525 194.525,14.975 194.525,14.025 194.525,5.475 185.975,5.475 185.975,14.025 185.025,14.025 185.025,5.475 176.475,5.475 175.525,5.475 166.975,5.475 166.025,5.475 157.475,5.475 157.475,14.025 166.025,14.025 166.025,14.975 157.475,14.975 156.525,14.025 156.525,5.475"  stroke="none"  fill="black" />
    <polygon points="5.475,4.525 14.025,4.525 14.975,4.525 23.525,4.525 24.475,4.525 33.025,4.525 33.975,4.525 42.525,4.525 43.475,4.525 52.025,4.525 52.975,4.525 61.525,4.525 62.475,4.525 71.025,4.525 71.975,4.525 80.525,4.525 81.475,4.525 90.025,4.525 90.975,4.525 99.525,4.525 100.475,4.525 109.025,4.525 109.975,4.525 118.525,4.525 119.475,4.525 128.025,4.525 128.975,4.525 137.525,4.525 138.475,4.525 147.025,4.525 147.025,5.475 138.475,5.475 138.475,14.025 138.475,14.975 138.475,23.525 137.525,23.525 137.525,14.975 137.525,14.025 137.525,5.475 128.975,5.475 128.025,5.475 119.475,5.475 118.525,5.475 109.975,5.475 109.025,5.475 100.475,5.475 99.525,5.475 90.975,5.475 90.025,5.475 81.475,5.475 81.475,14.025 90.025,14.025 90.025,14.975 81.475,14.975 80.525,14.025 80.525,5.475 71.975,5.475 71.025,5.475 62.475,5.475 61.525,5.475 52.975,5.475 52.975,14.025 52.025,14.975 43.475,14.975 43.475,14.025 52.025,14.025 52.025,5.475 43.475,5.475 42.525,5.475 33.975,5.475 33.975,14.025 33.975,14.975 33.975,23.525 42.525,23.525 43.475,23.525 52.025,23.525 52.975,23.525 61.525,23.525 62.475,23.525 71.025,23.525 71.025,14.975 62.475,14.975 62.475,14.025 71.025,14.025 71.975,14.975 71.975,23.525 71.025,24.475 62.475,24.475 61.525,24.475 52.975,24.475 52.025,24.475 43.475,24.475 42.525,24.475 33.975,24.475 33.975,33.025 33.025,33.025 33.025,24.475 33.025,23.525 33.025,14.975 33.025,14.025 33.025,5.475 24.475,5.475 23.525,5.475 14.975,5.475 14.975,14.025 14.025,14.025 14.025,5.475 5.475,5.475 5.475,14.025 5.475,14.975 5.475,23.525 14.025,23.525 14.975,23.525 23.525,23.525 23.525,14.975 24.475,14.975 24.475,23.525 24.475,24.475 24.475,33.025 24.475,33.975 24.475,42.525 33.025,42.525 33.975,42.525 42.525,42.525 42.525,33.975 43.475,33.025 52.025,33.025 52.975,33.025 61.525,33.025 62.475,33.025 71.025,33.025 71.025,33.975 62.475,33.975 61.525,33.975 52.975,33.975 52.975,42.525 52.025,42.525 52.025,33.975 43.475,33.975 43.475,42.525 42.525,43.475 33.975,43.475 33.975,52.025 33.975,52.975 33.975,61.525 33.975,62.475 33.975,71.025 42.525,71.025 43.475,71.975 43.475,80.525 43.475,81.475 43.475,90.025 43.475,90.975 43.475,99.525 42.525,99.525 42.525,90.975 42.525,90.025 42.525,81.475 42.525,80.525 42.525,71.975 33.975,71.975 33.975,80.525 33.025,80.525 33.025,71.975 33.025,71.025 33.025,62.475 24.475,62.475 23.525,62.475 14.975,62.475 14.975,61.525 23.525,61.525 23.525,52.975 14.975,52.975 14.975,52.025 23.525,52.025 24.475,52.975 24.475,61.525 33.025,61.525 33.025,52.975 33.025,52.025 33.025,43.475 24.475,43.475 23.525,43.475 14.975,43.475 14.975,42.525 23.525,42.525 23.525,33.975 23.525,33.025 23.525,24.475 14.975,24.475 14.975,33.025 14.025,33.025 14.025,24.475 5.475,24.475 5.475,33.025 5.475,33.975 5.475,42.525 5.475,43.475 5.475,52.025 5.475,52.975 5.475,61.525 5.475,62.475 5.475,71.025 14.025,71.025 14.025,71.975 5.475,71.975 5.475,80.525 5.475,81.475 5.475,90.025 14.025,90.025 14.025,81.475 14.975,81.475 14.975,90.025 23.525,90.025 23.525,81.475 23.525,80.525 23.525,71.975 24.475,71.975 24.475,80.525 24.475,81.475 24.475,90.025 33.025,90.025 33.025,90.975 24.475,90.975 23.525,90.975 14.975,90.975 14.025,90.975 5.475,90.975 5.475,99.525 14.025,99.525 14.975,99.525 23.525,99.525 23.525,100.475 14.975,100.475 14.025,100.475 5.475,100.475 5.475,109.025 5.475,109.975 5.475,118.525 14.025,118.525 14.975,119.475 14.975,128.025 14.025,128.025 14.025,119.475 5.475,119.475 5.475,128.025 5.475,128.975 5.475,137.525 5.475,138.475 5.475,147.025 14.025,147.025 14.025,147.975 5.475,147.975 4.525,147.025 4.525,138.475 4.525,137.525 4.525,128.975 4.525,128.025 4.525,119.475 4.525,118.525 4.525,109.975 4.525,109.025 4.525,100.475 4.525,99.525 4.525,90.975 4.525,90.025 4.525,81.475 4.525,80.525 4.525,71.975 4.525,71.025 4.525,62.475 4.525,61.525 4.525,52.975 4.525,52.025 4.525,43.475 4.525,42.525 4.525,33.975 4.525,33.025 4.525,24.475 4.525,23.525 4.525,14.975 4.525,14.025 4.525,5.475"  stroke="none"  fill="black" />
  </g>
  <polyline points="152.25,9.75 142.75,9.75 142.75,19.25 142.75,28.75 133.25,28.75 133.25,19.25 133.25,9.75 123.75,9.75 114.25,9.75 104.75,9.75 95.25,9.75 95.25,19.25 85.75,19.25 76.25,19.25 76.25,28.75 76.25,38.25 66.75,38.25 57.25,38.25 57.25,47.75 47.75,47.75 38.25,47.75 38.25,57.25 38.25,66.75 47.75,66.75 47.75,76.25 47.75,85.75 47.75,95.25 47.75,104.75 38.25,104.75 38.25,95.25 28.75,95.25 28.75,104.75 19.25,104.75 9.75,104.75 9.75,114.25 19.25,114.25 19.25,123.75 19.25,133.25 9.75,133.25 9.75,142.75 19.25,142.75 19.25,152.25 9.75,152.25"  stroke="red"  fill="none"  stroke-dasharray="5,5" />
</svg>
